:SAMPLES-PER-SECOND 24
:FULLY-SPECIFIED
:DEGREES
447
root  -7.44204 37.7683 -2.71682 -166.136 69.334 -171.769
RightUpLeg  -14.6956 -2.11244 -8.12225
RightLeg  32.6849 -1.63155 -1.37405
RightFoot  -19.9106 0.797127 12.405
RightToes  -2.09809e-008 3.77894e-005 6.81332e-007
Spine  1.97871 -0.329051 0.75279
Spine1  6.39149 -1.06882 2.95159
HEad  -23.6266 40.5319 -20.2439
LeftShoulder1  6.89355 -12.6392 -36.6451
LeftArm  3.94208 18.0245 -27.623
LeftForeArm  168.805 -65.1079 -158.735
LeftHand  -0.317669 -2.3118 4.99299
RightShoulder  3.56701 6.18858 30.9064
RightArm  10.3607 -26.7651 33.2983
RightForeArm  159.651 72.0149 148.781
RightHand  -0.458422 9.76573 -3.90315
LeftUpLeg  -22.6734 -2.84624 13.4722
LeftLeg  36.8806 5.6727 4.92156
LeftFoot  -15.3574 -0.383885 -13.5096
LeftToes  1.24773e-006 1.46318e-008 1.32523e-009
448
root  -7.59384 37.1968 -2.60723 -165.14 71.4509 -171.154
RightUpLeg  -17.9969 -0.80547 -8.13063
RightLeg  37.0051 -2.17201 -2.01783
RightFoot  -22.5005 0.904345 10.7682
RightToes  -2.09809e-008 3.77894e-005 6.81332e-007
Spine  1.50651 0.770592 1.46174
Spine1  7.34328 0.269088 2.02948
HEad  -25.3513 39.8036 -21.3188
LeftShoulder1  7.33841 -13.0832 -38.134
LeftArm  2.74864 12.6474 -25.8196
LeftForeArm  170.121 -67.4452 -156.555
LeftHand  -0.289957 -2.49479 4.47787
RightShoulder  3.60659 6.17887 31.3577
RightArm  8.40954 -24.8782 34.3798
RightForeArm  159.935 73.5995 145.783
RightHand  -0.378217 10.1931 -3.21648
LeftUpLeg  -24.8038 -3.04913 13.2782
LeftLeg  41.2572 7.12199 7.02819
LeftFoot  -16.7404 -0.576451 -14.2954
LeftToes  1.24773e-006 1.46318e-008 1.32523e-009
449
root  -7.66556 37.4594 -2.59836 -166.325 73.4458 -172.037
RightUpLeg  -17.6671 1.6513 -8.80373
RightLeg  35.7538 -2.33311 -2.08951
RightFoot  -20.9165 0.799587 11.2711
RightToes  -2.09809e-008 3.77894e-005 6.81332e-007
Spine  2.44344 0.992004 2.44522
Spine1  6.93878 1.04659 -0.318787
HEad  -26.5554 40.3252 -22.0474
LeftShoulder1  7.22427 -13.0003 -37.6746
LeftArm  0.944239 13.6498 -27.7397
LeftForeArm  172.212 -66.3304 -157.917
LeftHand  -0.230783 -2.28192 3.69453
RightShoulder  3.54502 6.1578 30.7947
RightArm  8.61607 -25.4132 36.369
RightForeArm  161.032 73.3421 146.487
RightHand  -0.307633 10.0969 -2.70779
LeftUpLeg  -22.8823 -3.78871 12.4194
LeftLeg  39.4094 9.41989 8.53921
LeftFoot  -15.6271 -0.453067 -14.537
LeftToes  1.24773e-006 1.46318e-008 1.32523e-009
450
root  -7.52191 38.467 -2.65826 -166.157 74.4887 -172.643
RightUpLeg  -13.9981 3.66221 -8.96964
RightLeg  26.2062 -3.94878 -2.27452
RightFoot  -16.0354 0.340144 10.8455
RightToes  -2.09809e-008 3.77894e-005 6.81332e-007
Spine  1.43612 0.707665 2.30131
Spine1  6.20469 0.746631 -0.425409
HEad  -24.5891 42.0945 -21.6097
LeftShoulder1  6.85871 -12.6098 -36.5123
LeftArm  0.508822 18.9335 -31.1797
LeftForeArm  171.894 -63.314 -160.587
LeftHand  -0.2652 -1.83649 4.44021
RightShoulder  3.4412 6.10201 29.9116
RightArm  11.6179 -27.539 36.6018
RightForeArm  161.906 71.6843 149.687
RightHand  -0.321711 9.97411 -2.83001
LeftUpLeg  -19.4686 -3.1057 11.8492
LeftLeg  31.6621 11.1264 7.6379
LeftFoot  -11.1539 0.0867846 -14.2021
LeftToes  1.24773e-006 1.46318e-008 1.32523e-009
451
root  -7.19582 39.5154 -2.57895 -165.976 74.8352 -175.501
RightUpLeg  -11.7137 3.24066 -8.95143
RightLeg  15.8908 -5.60121 -2.47209
RightFoot  -11.846 -0.0362709 10.0524
RightToes  -2.09809e-008 3.77894e-005 6.81332e-007
Spine  -2.18476 0.545071 -0.577015
Spine1  4.77791 0.14192 1.79319
HEad  -19.1984 43.5633 -18.9889
LeftShoulder1  6.46755 -12.1759 -35.2256
LeftArm  1.43442 24.7449 -33.8675
LeftForeArm  171.628 -61.066 -162.25
LeftHand  -0.249498 -1.99125 4.10997
RightShoulder  3.43127 6.09432 29.8359
RightArm  15.2237 -31.0215 33.8123
RightForeArm  164.336 69.4251 153.413
RightHand  -0.22994 10.0721 -2.12966
LeftUpLeg  -18.5343 0.664835 11.2435
LeftLeg  23.4864 8.50566 4.36105
LeftFoot  -4.65797 0.885357 -14.6223
LeftToes  1.24773e-006 1.46318e-008 1.32523e-009
452
root  -6.98364 40.1601 -2.36046 -166.181 75.3031 -178.726
RightUpLeg  -12.257 -0.374152 -8.44229
RightLeg  12.6229 -1.53787 -1.62793
RightFoot  -12.0363 0.00284197 13.1201
RightToes  -2.09809e-008 3.77894e-005 6.81332e-007
Spine  -5.16512 0.378065 -2.2974
Spine1  3.35282 0.120823 1.78793
HEad  -16.0076 43.9168 -16.9423
LeftShoulder1  6.22052 -11.9738 -34.1851
LeftArm  2.28888 28.2426 -34.394
LeftForeArm  172.015 -59.2567 -163.479
LeftHand  -0.147619 -2.14662 2.46041
RightShoulder  3.54074 6.24338 30.4224
RightArm  17.7109 -33.9909 30.6218
RightForeArm  166.263 67.3018 156.234
RightHand  -0.109064 10.0218 -1.22797
LeftUpLeg  -19.3784 4.77929 10.7674
LeftLeg  18.8689 4.20249 1.91398
LeftFoot  0.222438 1.67203 -16.4376
LeftToes  1.24773e-006 1.46318e-008 1.32523e-009
453
root  -7.07719 40.3407 -2.07752 -165.81 76.7048 -179.065
RightUpLeg  -13.4873 0.757204 -7.9809
RightLeg  16.8302 0.835545 -0.0138179
RightFoot  -13.0797 0.147599 15.6082
RightToes  -2.09809e-008 3.77894e-005 6.81332e-007
Spine  -4.67621 0.728124 -1.40807
Spine1  2.63302 0.86105 -0.482047
HEad  -18.0669 43.5669 -18.142
LeftShoulder1  6.20503 -12.0117 -33.988
LeftArm  2.35139 27.9375 -33.1249
LeftForeArm  171.232 -58.1025 -164.113
LeftHand  -0.105671 -1.89741 1.85855
RightShoulder  3.56607 6.31989 30.3961
RightArm  18.5481 -33.9675 29.6237
RightForeArm  165.507 66.4986 157.013
RightHand  -0.122855 9.73275 -1.34521
LeftUpLeg  -19.5334 6.48821 11.0599
LeftLeg  17.7608 3.04907 1.42705
LeftFoot  2.09026 2.12156 -18.022
LeftToes  1.24773e-006 1.46318e-008 1.32523e-009
454
root  -7.35725 40.0686 -1.77873 -167.32 78.1944 -179.591
RightUpLeg  -13.3308 2.69302 -7.26116
RightLeg  21.8464 0.666463 0.0847839
RightFoot  -13.1038 0.103707 11.9433
RightToes  -2.09809e-008 3.77894e-005 6.81332e-007
Spine  -2.17307 0.891545 -0.808506
Spine1  2.64633 1.16058 -1.53129
HEad  -21.9637 43.6424 -20.3617
LeftShoulder1  6.04528 -11.8095 -33.4759
LeftArm  1.19587 25.3064 -32.2251
LeftForeArm  170.184 -58.6108 -163.722
LeftHand  -0.118101 -1.79373 2.07622
RightShoulder  3.51443 6.3131 29.8857
RightArm  18.3961 -30.3872 30.3217
RightForeArm  162.787 67.9109 155.128
RightHand  -0.176311 9.14926 -1.79986
LeftUpLeg  -19.0574 5.5553 11.1949
LeftLeg  19.0311 5.47471 2.42227
LeftFoot  0.909698 1.90398 -17.6849
LeftToes  1.24773e-006 1.46318e-008 1.32523e-009
455
root  -7.64001 39.3809 -1.55532 -168.697 78.7462 -179.905
RightUpLeg  -12.943 3.92532 -6.49833
RightLeg  24.8877 -1.50123 -0.982321
RightFoot  -16.4778 0.177987 6.45485
RightToes  -2.09809e-008 3.77894e-005 6.81332e-007
Spine  0.113391 0.629806 0.30719
Spine1  2.62232 0.911991 -1.59726
HEad  -25.0582 44.4118 -21.8304
LeftShoulder1  6.10637 -11.8276 -33.8267
LeftArm  -0.28761 21.1357 -30.2587
LeftForeArm  169.004 -60.8955 -162.124
LeftHand  -0.178363 -1.73479 3.0737
RightShoulder  3.53558 6.32193 30.0726
RightArm  17.8768 -25.0997 30.6759
RightForeArm  158.452 70.9274 150.423
RightHand  -0.21531 8.73411 -2.15326
LeftUpLeg  -19.9732 2.5932 11.3646
LeftLeg  23.2223 9.39969 4.72428
LeftFoot  -3.43461 1.16796 -16.5081
LeftToes  1.24773e-006 1.46318e-008 1.32523e-009
456
root  -7.89281 38.5042 -1.39481 -165.646 79.8459 -176.239
RightUpLeg  -14.884 5.41302 -5.44835
RightLeg  29.27 -2.99732 -2.05215
RightFoot  -21.784 0.263685 4.42943
RightToes  -2.09809e-008 3.77894e-005 6.81332e-007
Spine  1.50582 0.963761 4.00477
Spine1  3.11519 1.78763 -4.13687
HEad  -28.6728 44.5721 -23.6996
LeftShoulder1  6.72989 -12.4608 -36.105
LeftArm  -1.42572 15.2096 -26.6392
LeftForeArm  168 -64.159 -159.493
LeftHand  -0.266632 -1.48172 4.66303
RightShoulder  3.55838 6.24998 30.5803
RightArm  16.2482 -20.4865 30.8183
RightForeArm  154.333 73.889 144.201
RightHand  -0.26706 9.10142 -2.52794
LeftUpLeg  -22.3774 0.439892 12.2356
LeftLeg  29.8601 12.4148 7.93428
LeftFoot  -7.96168 0.528464 -16.2727
LeftToes  1.24773e-006 1.46318e-008 1.32523e-009
457
root  -8.02059 37.9443 -1.17891 -164.36 81.9055 -174.565
RightUpLeg  -17.5606 8.03326 -5.18589
RightLeg  34.4415 -3.66239 -2.95197
RightFoot  -23.9622 0.373467 4.8488
RightToes  -2.09809e-008 3.77894e-005 6.81332e-007
Spine  1.65214 1.88189 6.1938
Spine1  4.91518 3.41193 -7.02693
HEad  -32.9596 43.8929 -25.5628
LeftShoulder1  7.258 -12.9895 -37.9115
LeftArm  -3.00787 11.7007 -25.2748
LeftForeArm  169.092 -65.8166 -158.121
LeftHand  -0.264533 -1.53796 4.59673
RightShoulder  3.4827 6.11433 30.3052
RightArm  13.7289 -18.9496 31.9025
RightForeArm  154.519 74.9753 141.625
RightHand  -0.263032 9.6204 -2.43044
LeftUpLeg  -23.4359 0.410513 12.4863
LeftLeg  33.9891 13.9341 10.2412
LeftFoot  -9.6832 0.304556 -16.9117
LeftToes  1.24773e-006 1.46318e-008 1.32523e-009
458
root  -7.8743 38.2237 -0.928826 -170.475 81.9511 179.562
RightUpLeg  -16.8447 8.85272 -5.53306
RightLeg  34.0563 -4.46007 -3.47814
RightFoot  -22.5793 0.323446 4.83583
RightToes  -2.09809e-008 3.77894e-005 6.81332e-007
Spine  0.571136 1.73902 4.69759
Spine1  6.45002 3.19491 -6.4455
HEad  -35.5621 44.1549 -25.1188
LeftShoulder1  7.01854 -12.7342 -37.1474
LeftArm  -4.07774 14.8244 -27.9514
LeftForeArm  171.467 -63.8675 -160.09
LeftHand  -0.214169 -1.81215 3.62655
RightShoulder  3.48462 6.14341 30.2139
RightArm  12.5257 -21.4601 33.3875
RightForeArm  157.904 73.7901 145.013
RightHand  -0.238887 9.45975 -2.26162
LeftUpLeg  -22.0359 0.277537 11.9065
LeftLeg  31.8469 14.5934 9.90352
LeftFoot  -7.87465 0.566608 -17.0289
LeftToes  1.24773e-006 1.46318e-008 1.32523e-009
459
root  -7.51969 39.2905 -0.751053 -173.447 79.2563 176.266
RightUpLeg  -13.594 6.64006 -5.43211
RightLeg  27.7935 -4.65135 -2.8853
RightFoot  -17.4296 0.13794 4.81327
RightToes  -2.09809e-008 3.77894e-005 6.81332e-007
Spine  -1.62642 0.740934 2.31517
Spine1  7.14955 1.46985 -3.23118
HEad  -34.1023 44.9224 -22.6028
LeftShoulder1  6.65913 -12.3335 -36.0073
LeftArm  -2.77923 20.9131 -31.1611
LeftForeArm  172.572 -60.9231 -162.437
LeftHand  -0.220434 -1.82012 3.72424
RightShoulder  3.45871 6.06225 30.2509
RightArm  12.7251 -26.8792 34.3629
RightForeArm  160.498 71.757 149.356
RightHand  -0.269775 9.23151 -2.53182
LeftUpLeg  -20.4188 0.435664 11.7396
LeftLeg  25.7545 13.1087 7.12562
LeftFoot  -0.513339 1.57973 -16.5408
LeftToes  1.24773e-006 1.46318e-008 1.32523e-009
460
root  -7.14459 40.5424 -0.648086 -173.691 77.0556 174.954
RightUpLeg  -12.0739 3.21219 -5.72366
RightLeg  22.7137 -2.34566 -1.29108
RightFoot  -9.14981 -0.201547 6.86745
RightToes  -2.09809e-008 3.77894e-005 6.81332e-007
Spine  -4.61947 0.213881 1.76381
Spine1  7.55502 0.782058 -2.79357
HEad  -27.3126 44.8349 -18.8113
LeftShoulder1  6.33255 -11.9814 -34.88
LeftArm  -0.167108 26.299 -33.0982
LeftForeArm  174.4 -59.125 -163.771
LeftHand  -0.172133 -2.18445 2.83376
RightShoulder  3.50238 6.05034 30.7613
RightArm  13.2453 -33.1653 33.7332
RightForeArm  163.145 69.5496 153.083
RightHand  -0.271315 9.50782 -2.50866
LeftUpLeg  -19.7701 3.45851 11.5022
LeftLeg  19.4477 8.94494 3.82816
LeftFoot  10.4423 3.29662 -17.3146
LeftToes  1.24773e-006 1.46318e-008 1.32523e-009
